<svg width="235" height="279" viewBox="0 0 235 279" fill="none" xmlns="http://www.w3.org/2000/svg">
<path d="M206.222 131.889V54.4459C206.223 53.468 206.031 52.4996 205.657 51.596C205.282 50.6925 204.734 49.8717 204.042 49.1807L165.042 10.1804C163.649 8.78603 161.759 8.00173 159.789 8H15.4333C13.4619 8 11.5712 8.78315 10.1772 10.1772C8.78315 11.5712 8 13.4619 8 15.4333V248.344C8 250.316 8.78315 252.207 10.1772 253.601C11.5712 254.995 13.4619 255.778 15.4333 255.778H94.7222M57.5556 107.111H156.667M57.5556 57.5556H107.111M57.5556 156.667H94.7222" stroke="white" stroke-width="16" stroke-linecap="round" stroke-linejoin="round"/>
<path d="M156.669 8V50.1222C156.669 52.0937 157.452 53.9844 158.846 55.3784C160.24 56.7724 162.131 57.5556 164.102 57.5556H206.225" stroke="white" stroke-width="16" stroke-linecap="round" stroke-linejoin="round"/>
<path d="M144 272L186.007 230M186.007 230L228 188M186.007 230L144 188M186.007 230L228 272" stroke="white" stroke-width="14" stroke-linecap="round" stroke-linejoin="round"/>
</svg>
