<svg width="210" height="34" viewBox="0 0 210 34" fill="none" xmlns="http://www.w3.org/2000/svg">
<path d="M14.209 10.4869H17.9272L8.72015 32.7994H5.17897L-0.000231743 19.0995L2.94043 17.8618L6.99382 29.1847L14.209 10.4869ZM34.9176 18.3855C34.9176 16.7195 34.4749 15.4403 33.5896 14.5478C32.7043 13.6255 31.4502 13.1644 29.8271 13.1644C28.2926 13.1644 26.9942 13.5065 25.9318 14.1908C24.8695 14.8453 24.0875 15.9163 23.5858 17.4038L20.7086 15.6188C21.2988 13.9528 22.3907 12.614 23.9842 11.6025C25.5777 10.5613 27.5549 10.0406 29.9157 10.0406C31.5092 10.0406 32.9552 10.3233 34.2536 10.8885C35.552 11.424 36.5701 12.257 37.3079 13.3875C38.0751 14.4883 38.4588 15.9162 38.4588 17.6715V28.4708C38.4588 29.5417 39.0194 30.0773 40.1408 30.0773C40.7015 30.0773 41.2474 30.0029 41.7786 29.8541L41.6016 32.6655C41.0114 32.963 40.2441 33.1118 39.2998 33.1118C38.444 33.1118 37.6767 32.9481 36.998 32.6209C36.3193 32.2936 35.7881 31.8027 35.4045 31.1483C35.0209 30.464 34.8291 29.6161 34.8291 28.6046V28.1584L35.7143 28.2922C35.3602 29.4525 34.7553 30.4045 33.8995 31.1483C33.0437 31.8623 32.0846 32.3978 31.0223 32.7547C29.9599 33.082 28.9123 33.2456 27.8795 33.2456C26.5811 33.2456 25.3712 33.0225 24.2498 32.5763C23.1284 32.13 22.2284 31.4606 21.5496 30.5681C20.9004 29.6459 20.5758 28.5154 20.5758 27.1766C20.5758 25.5106 21.1217 24.1421 22.2136 23.0711C23.335 21.9704 24.8842 21.2266 26.8614 20.8399L35.6258 19.0995V22.0448L28.4992 23.5174C27.0532 23.8149 25.9761 24.2314 25.2679 24.7669C24.5596 25.3024 24.2055 26.0461 24.2055 26.9981C24.2055 27.9204 24.5596 28.679 25.2679 29.274C26.0056 29.8393 27.0385 30.1219 28.3664 30.1219C29.2222 30.1219 30.0337 30.0178 30.801 29.8095C31.5977 29.5715 32.306 29.2294 32.9257 28.7831C33.5454 28.3071 34.0323 27.727 34.3864 27.0428C34.7405 26.3288 34.9176 25.4958 34.9176 24.5438V18.3855ZM50.4282 0.223125V27.132C50.4282 28.2625 50.6348 29.0509 51.048 29.4971C51.4611 29.9136 52.1251 30.1219 53.0399 30.1219C53.6301 30.1219 54.117 30.0773 54.5006 29.988C54.8842 29.8988 55.4007 29.7351 56.0499 29.4971L55.4744 32.6209C55.0023 32.8291 54.4858 32.9779 53.9252 33.0671C53.3645 33.1861 52.789 33.2456 52.1988 33.2456C50.3987 33.2456 49.056 32.7547 48.1707 31.773C47.315 30.7913 46.8871 29.2889 46.8871 27.2659V0.223125H50.4282ZM62.3649 6.20288C61.5681 6.20288 60.9189 5.96488 60.4172 5.48888C59.9451 4.98313 59.709 4.32863 59.709 3.52538C59.709 2.72213 59.9451 2.0825 60.4172 1.6065C60.9189 1.10075 61.5681 0.847875 62.3649 0.847875C63.1616 0.847875 63.7961 1.10075 64.2682 1.6065C64.7699 2.0825 65.0207 2.72213 65.0207 3.52538C65.0207 4.32863 64.7699 4.98313 64.2682 5.48888C63.7961 5.96488 63.1616 6.20288 62.3649 6.20288ZM64.1354 10.4869V32.7994H60.5943V10.4869H64.1354ZM80.9837 33.2456C79.154 33.2456 77.472 32.7845 75.9375 31.8623C74.403 30.94 73.1783 29.6161 72.2635 27.8906C71.3487 26.1354 70.8913 24.0529 70.8913 21.6431C70.8913 19.1739 71.3782 17.0765 72.352 15.351C73.3259 13.6255 74.6095 12.3165 76.2031 11.424C77.7966 10.5018 79.5082 10.0406 81.3378 10.0406C83.1674 10.0406 84.7461 10.5166 86.0741 11.4686C87.4315 12.4206 88.3316 13.685 88.7742 15.2618L88.3316 15.5741V0.223125H91.8728V32.7994H88.7742L88.4644 27.3997L88.9513 27.132C88.7447 28.441 88.2431 29.5566 87.4463 30.4789C86.679 31.3714 85.72 32.0556 84.5691 32.5316C83.4477 33.0076 82.2526 33.2456 80.9837 33.2456ZM81.3378 30.1219C82.7542 30.1219 83.9789 29.7649 85.0117 29.0509C86.0741 28.3369 86.8856 27.3254 87.4463 26.0164C88.0365 24.6776 88.3316 23.1157 88.3316 21.3307C88.3316 19.635 88.0365 18.1772 87.4463 16.9575C86.8856 15.7378 86.0888 14.8006 85.056 14.1461C84.0527 13.4916 82.8723 13.1644 81.5148 13.1644C79.2721 13.1644 77.531 13.9379 76.2916 15.4849C75.0522 17.0319 74.4325 19.0846 74.4325 21.6431C74.4325 24.2016 75.0374 26.2544 76.2473 27.8014C77.4572 29.3484 79.154 30.1219 81.3378 30.1219ZM110.865 3.34688C112.842 3.34688 114.554 3.71875 116 4.4625C117.475 5.1765 118.626 6.20288 119.453 7.54163C120.279 8.88038 120.692 10.472 120.692 12.3165C120.692 14.161 120.279 15.7526 119.453 17.0914C118.626 18.4301 117.475 19.4714 116 20.2151C114.554 20.9291 112.842 21.2861 110.865 21.2861H104.093V32.7994H100.552V3.34688H110.865ZM110.334 17.9393C112.636 17.9393 114.318 17.4633 115.38 16.5113C116.443 15.5295 116.974 14.1313 116.974 12.3165C116.974 10.472 116.443 9.07375 115.38 8.12175C114.318 7.16975 112.636 6.69375 110.334 6.69375H104.093V17.9393H110.334ZM126.905 32.7994V10.4869H129.782L130.269 14.1461C130.889 12.7776 131.789 11.7513 132.969 11.067C134.179 10.3828 135.64 10.0406 137.351 10.0406C137.735 10.0406 138.148 10.0704 138.591 10.1299C139.063 10.1894 139.461 10.3084 139.786 10.4869L139.166 13.7445C138.842 13.6255 138.487 13.5363 138.104 13.4768C137.72 13.4173 137.174 13.3875 136.466 13.3875C135.551 13.3875 134.622 13.6553 133.677 14.1908C132.762 14.7263 131.995 15.5444 131.376 16.6451C130.756 17.7161 130.446 19.0846 130.446 20.7506V32.7994H126.905ZM153.445 10.0406C155.54 10.0406 157.384 10.5018 158.978 11.424C160.601 12.3463 161.87 13.685 162.785 15.4403C163.699 17.1658 164.157 19.2334 164.157 21.6431C164.157 24.0529 163.699 26.1354 162.785 27.8906C161.87 29.6161 160.601 30.94 158.978 31.8623C157.384 32.7845 155.54 33.2456 153.445 33.2456C151.379 33.2456 149.535 32.7845 147.912 31.8623C146.289 30.94 145.02 29.6161 144.105 27.8906C143.19 26.1354 142.733 24.0529 142.733 21.6431C142.733 19.2334 143.19 17.1658 144.105 15.4403C145.02 13.685 146.289 12.3463 147.912 11.424C149.535 10.5018 151.379 10.0406 153.445 10.0406ZM153.445 13.1198C151.94 13.1198 150.656 13.4619 149.594 14.1461C148.531 14.8304 147.705 15.8121 147.115 17.0914C146.554 18.3409 146.274 19.8581 146.274 21.6431C146.274 23.3984 146.554 24.9156 147.115 26.1949C147.705 27.4741 148.531 28.4559 149.594 29.1401C150.656 29.8244 151.94 30.1665 153.445 30.1665C154.95 30.1665 156.233 29.8244 157.296 29.1401C158.358 28.4559 159.17 27.4741 159.73 26.1949C160.32 24.9156 160.616 23.3984 160.616 21.6431C160.616 19.8581 160.32 18.3409 159.73 17.0914C159.17 15.8121 158.358 14.8304 157.296 14.1461C156.233 13.4619 154.95 13.1198 153.445 13.1198ZM179.987 10.0406C182.082 10.0406 183.926 10.5018 185.52 11.424C187.143 12.3463 188.412 13.685 189.326 15.4403C190.241 17.1658 190.699 19.2334 190.699 21.6431C190.699 24.0529 190.241 26.1354 189.326 27.8906C188.412 29.6161 187.143 30.94 185.52 31.8623C183.926 32.7845 182.082 33.2456 179.987 33.2456C177.921 33.2456 176.077 32.7845 174.454 31.8623C172.831 30.94 171.562 29.6161 170.647 27.8906C169.732 26.1354 169.275 24.0529 169.275 21.6431C169.275 19.2334 169.732 17.1658 170.647 15.4403C171.562 13.685 172.831 12.3463 174.454 11.424C176.077 10.5018 177.921 10.0406 179.987 10.0406ZM179.987 13.1198C178.482 13.1198 177.198 13.4619 176.136 14.1461C175.073 14.8304 174.247 15.8121 173.657 17.0914C173.096 18.3409 172.816 19.8581 172.816 21.6431C172.816 23.3984 173.096 24.9156 173.657 26.1949C174.247 27.4741 175.073 28.4559 176.136 29.1401C177.198 29.8244 178.482 30.1665 179.987 30.1665C181.492 30.1665 182.775 29.8244 183.838 29.1401C184.9 28.4559 185.712 27.4741 186.272 26.1949C186.862 24.9156 187.158 23.3984 187.158 21.6431C187.158 19.8581 186.862 18.3409 186.272 17.0914C185.712 15.8121 184.9 14.8304 183.838 14.1461C182.775 13.4619 181.492 13.1198 179.987 13.1198ZM205.962 0C206.729 0 207.452 0.08925 208.131 0.26775C208.809 0.446249 209.34 0.699124 209.724 1.02638L208.795 3.927C208.44 3.689 208.057 3.52538 207.644 3.43613C207.23 3.31713 206.773 3.25763 206.271 3.25763C205.003 3.25763 204.014 3.57 203.306 4.19475C202.597 4.78975 202.243 5.75663 202.243 7.09538V10.4869V11.6471V32.7994H198.702V6.73838C198.702 5.75663 198.85 4.84925 199.145 4.01625C199.44 3.18325 199.883 2.46925 200.473 1.87425C201.092 1.27925 201.86 0.818124 202.775 0.490874C203.689 0.163625 204.752 0 205.962 0ZM209.636 10.4869V13.566H194.276V10.4869H209.636Z" fill="white"/>
</svg>
